<?xml version="1.0" encoding="utf-8"?>
<!-- Generator: Adobe Illustrator 22.1.0, SVG Export Plug-In . SVG Version: 6.00 Build 0)  -->
<svg version="1.1" id="Réteg_1" xmlns="http://www.w3.org/2000/svg" xmlns:xlink="http://www.w3.org/1999/xlink" x="0px" y="0px"
	 viewBox="0 0 347.5 85" style="enable-background:new 0 0 347.5 85;" xml:space="preserve">
<style type="text/css">
	.st0{fill-rule:evenodd;clip-rule:evenodd;fill:#E30613;}
	.st1{fill:#FFFFFF;}
</style>
<path class="st0" d="M0,0h347.5l-29,85H0V0z"/>
<g>
	<path class="st1" d="M79.2,46.1V17.4h19.6v4.8H85V29h12v4.8H85v12.2H79.2z"/>
	<path class="st1" d="M102.3,35.4c0-1.8,0.4-3.6,1.3-5.3c0.9-1.7,2.2-3,3.8-3.9s3.5-1.3,5.5-1.3c3.1,0,5.7,1,7.7,3.1
		c2,2,3,4.6,3,7.7c0,3.1-1,5.7-3,7.8c-2,2.1-4.6,3.1-7.7,3.1c-1.9,0-3.7-0.4-5.4-1.3c-1.7-0.9-3-2.1-3.9-3.8
		C102.8,39.8,102.3,37.8,102.3,35.4z M108,35.7c0,2.1,0.5,3.6,1.5,4.7c1,1.1,2.2,1.6,3.6,1.6c1.4,0,2.6-0.5,3.6-1.6
		c1-1.1,1.5-2.7,1.5-4.8c0-2-0.5-3.6-1.5-4.7c-1-1.1-2.2-1.6-3.6-1.6c-1.4,0-2.6,0.5-3.6,1.6C108.4,32.1,108,33.6,108,35.7z"/>
	<path class="st1" d="M137.6,25.3v4.4h-3.8v8.4c0,1.7,0,2.7,0.1,3c0.1,0.3,0.2,0.5,0.5,0.7c0.3,0.2,0.6,0.3,0.9,0.3
		c0.5,0,1.2-0.2,2.2-0.5l0.5,4.3c-1.3,0.5-2.7,0.8-4.3,0.8c-1,0-1.9-0.2-2.7-0.5c-0.8-0.3-1.4-0.8-1.7-1.3c-0.4-0.5-0.6-1.2-0.8-2.1
		c-0.1-0.6-0.2-1.9-0.2-3.9v-9h-2.5v-4.4h2.5v-4.1l5.5-3.2v7.3H137.6z"/>
	<path class="st1" d="M140.1,35.4c0-1.8,0.4-3.6,1.3-5.3c0.9-1.7,2.2-3,3.8-3.9s3.5-1.3,5.5-1.3c3.1,0,5.7,1,7.7,3.1
		c2,2,3,4.6,3,7.7c0,3.1-1,5.7-3,7.8c-2,2.1-4.6,3.1-7.7,3.1c-1.9,0-3.7-0.4-5.4-1.3c-1.7-0.9-3-2.1-3.9-3.8
		C140.6,39.8,140.1,37.8,140.1,35.4z M145.7,35.7c0,2.1,0.5,3.6,1.5,4.7c1,1.1,2.2,1.6,3.6,1.6c1.4,0,2.6-0.5,3.6-1.6
		c1-1.1,1.5-2.7,1.5-4.8c0-2-0.5-3.6-1.5-4.7c-1-1.1-2.2-1.6-3.6-1.6c-1.4,0-2.6,0.5-3.6,1.6C146.2,32.1,145.7,33.6,145.7,35.7z
		 M148,22.8l2.7-5.8h6.2l-5.4,5.8H148z"/>
	<path class="st1" d="M165.6,46.1V17.4h5.5v15.2l6.4-7.3h6.8l-7.1,7.6l7.6,13.2h-5.9l-5.2-9.3l-2.6,2.7v6.6H165.6z"/>
	<path class="st1" d="M188.1,22.5v-5.1h5.5v5.1H188.1z M188.1,46.1V25.3h5.5v20.8H188.1z"/>
	<path class="st1" d="M203.3,31.6l-5-0.9c0.6-2,1.5-3.5,2.9-4.5s3.4-1.4,6.1-1.4c2.4,0,4.3,0.3,5.5,0.9c1.2,0.6,2,1.3,2.5,2.2
		s0.7,2.5,0.7,4.9l-0.1,6.4c0,1.8,0.1,3.2,0.3,4c0.2,0.9,0.5,1.8,1,2.8h-5.4c-0.1-0.4-0.3-0.9-0.5-1.6c-0.1-0.3-0.2-0.5-0.2-0.6
		c-0.9,0.9-1.9,1.6-3,2.1c-1.1,0.5-2.2,0.7-3.4,0.7c-2.1,0-3.8-0.6-5.1-1.7c-1.2-1.2-1.8-2.6-1.8-4.4c0-1.2,0.3-2.2,0.8-3.1
		c0.6-0.9,1.3-1.6,2.4-2.1c1-0.5,2.5-0.9,4.4-1.3c2.6-0.5,4.3-0.9,5.3-1.3V32c0-1.1-0.3-1.8-0.8-2.3c-0.5-0.4-1.5-0.7-3-0.7
		c-1,0-1.7,0.2-2.3,0.6C204.1,30,203.7,30.7,203.3,31.6z M210.7,36.1c-0.7,0.2-1.8,0.5-3.3,0.8c-1.5,0.3-2.5,0.6-3,1
		c-0.7,0.5-1.1,1.2-1.1,1.9c0,0.8,0.3,1.4,0.9,2c0.6,0.6,1.3,0.8,2.2,0.8c1,0,1.9-0.3,2.8-1c0.7-0.5,1.1-1.1,1.3-1.8
		c0.1-0.5,0.2-1.4,0.2-2.7V36.1z M204.7,22.8l2.7-5.8h6.2l-5.4,5.8H204.7z"/>
	<path class="st1" d="M221.5,46.1V17.4h5.5v28.7H221.5z"/>
	<path class="st1" d="M232.6,46.1V17.4h5.5v28.7H232.6z"/>
	<path class="st1" d="M243.3,22.8l2.7-5.8h6.2l-5.4,5.8H243.3z M243.7,46.1V25.3h5.5v20.8H243.7z"/>
	<path class="st1" d="M264.4,25.3v4.4h-3.8v8.4c0,1.7,0,2.7,0.1,3c0.1,0.3,0.2,0.5,0.5,0.7c0.3,0.2,0.6,0.3,0.9,0.3
		c0.5,0,1.2-0.2,2.2-0.5l0.5,4.3c-1.3,0.5-2.7,0.8-4.3,0.8c-1,0-1.9-0.2-2.7-0.5c-0.8-0.3-1.4-0.8-1.7-1.3c-0.4-0.5-0.6-1.2-0.8-2.1
		c-0.1-0.6-0.2-1.9-0.2-3.9v-9h-2.5v-4.4h2.5v-4.1l5.5-3.2v7.3H264.4z"/>
	<path class="st1" d="M272.3,31.6l-5-0.9c0.6-2,1.5-3.5,2.9-4.5s3.4-1.4,6.1-1.4c2.4,0,4.3,0.3,5.5,0.9c1.2,0.6,2,1.3,2.5,2.2
		s0.7,2.5,0.7,4.9l-0.1,6.4c0,1.8,0.1,3.2,0.3,4c0.2,0.9,0.5,1.8,1,2.8h-5.4c-0.1-0.4-0.3-0.9-0.5-1.6c-0.1-0.3-0.2-0.5-0.2-0.6
		c-0.9,0.9-1.9,1.6-3,2.1c-1.1,0.5-2.2,0.7-3.4,0.7c-2.1,0-3.8-0.6-5.1-1.7c-1.2-1.2-1.8-2.6-1.8-4.4c0-1.2,0.3-2.2,0.8-3.1
		c0.6-0.9,1.3-1.6,2.4-2.1c1-0.5,2.5-0.9,4.4-1.3c2.6-0.5,4.3-0.9,5.3-1.3V32c0-1.1-0.3-1.8-0.8-2.3c-0.5-0.4-1.5-0.7-3-0.7
		c-1,0-1.7,0.2-2.3,0.6C273.1,30,272.6,30.7,272.3,31.6z M279.6,36.1c-0.7,0.2-1.8,0.5-3.3,0.8c-1.5,0.3-2.5,0.6-3,1
		c-0.7,0.5-1.1,1.2-1.1,1.9c0,0.8,0.3,1.4,0.9,2c0.6,0.6,1.3,0.8,2.2,0.8c1,0,1.9-0.3,2.8-1c0.7-0.5,1.1-1.1,1.3-1.8
		c0.1-0.5,0.2-1.4,0.2-2.7V36.1z M273.7,22.8l2.7-5.8h6.2l-5.4,5.8H273.7z"/>
	<path class="st1" d="M288.5,40.1l5.5-0.8c0.2,1.1,0.7,1.9,1.4,2.4c0.7,0.6,1.7,0.8,3,0.8c1.4,0,2.5-0.3,3.2-0.8
		c0.5-0.4,0.7-0.9,0.7-1.5c0-0.4-0.1-0.8-0.4-1c-0.3-0.3-0.9-0.5-1.8-0.7c-4.4-1-7.2-1.9-8.4-2.7c-1.6-1.1-2.5-2.7-2.5-4.7
		c0-1.8,0.7-3.3,2.1-4.5c1.4-1.2,3.6-1.8,6.6-1.8c2.8,0,5,0.5,6.3,1.4c1.4,0.9,2.3,2.3,2.9,4.1l-5.2,1c-0.2-0.8-0.6-1.4-1.3-1.9
		c-0.6-0.4-1.5-0.6-2.6-0.6c-1.4,0-2.5,0.2-3.1,0.6c-0.4,0.3-0.6,0.7-0.6,1.1c0,0.4,0.2,0.7,0.5,1c0.5,0.4,2.2,0.9,5.1,1.5
		c2.9,0.7,5,1.5,6.1,2.4c1.1,1,1.7,2.3,1.7,4.1c0,1.9-0.8,3.5-2.4,4.9c-1.6,1.4-3.9,2.1-7.1,2.1c-2.8,0-5.1-0.6-6.7-1.7
		C290.1,43.7,289,42.1,288.5,40.1z"/>
	<path class="st1" d="M79.5,61.8l-2.3-0.4c0.3-0.9,0.7-1.6,1.4-2.1s1.6-0.7,2.8-0.7c1.1,0,2,0.1,2.6,0.4s1,0.6,1.2,1
		c0.2,0.4,0.3,1.2,0.3,2.3l0,3c0,0.9,0,1.5,0.1,1.9s0.2,0.8,0.5,1.3h-2.5c-0.1-0.2-0.1-0.4-0.2-0.8c0-0.2-0.1-0.3-0.1-0.3
		c-0.4,0.4-0.9,0.7-1.4,1s-1,0.3-1.6,0.3c-1,0-1.8-0.3-2.4-0.8s-0.9-1.2-0.9-2.1c0-0.5,0.1-1,0.4-1.5c0.3-0.4,0.6-0.8,1.1-1
		c0.5-0.2,1.2-0.4,2-0.6c1.2-0.2,2-0.4,2.5-0.6v-0.3c0-0.5-0.1-0.8-0.4-1.1c-0.2-0.2-0.7-0.3-1.4-0.3c-0.5,0-0.8,0.1-1.1,0.3
		C79.9,61,79.7,61.3,79.5,61.8z M83,63.8c-0.3,0.1-0.8,0.2-1.6,0.4c-0.7,0.2-1.2,0.3-1.4,0.4c-0.3,0.2-0.5,0.5-0.5,0.9
		c0,0.4,0.1,0.7,0.4,0.9c0.3,0.3,0.6,0.4,1,0.4c0.5,0,0.9-0.2,1.3-0.5c0.3-0.2,0.5-0.5,0.6-0.8c0.1-0.2,0.1-0.6,0.1-1.2V63.8z"/>
	<path class="st1" d="M92.5,64.1l2.6-0.3c0.2,0.9,0.5,1.5,1,1.9c0.5,0.4,1.1,0.6,2,0.6c0.9,0,1.5-0.2,2-0.6s0.7-0.8,0.7-1.3
		c0-0.3-0.1-0.6-0.3-0.8c-0.2-0.2-0.5-0.4-1-0.6c-0.3-0.1-1-0.3-2.2-0.6c-1.4-0.4-2.5-0.8-3-1.3c-0.8-0.7-1.2-1.6-1.2-2.7
		c0-0.7,0.2-1.3,0.6-1.9c0.4-0.6,0.9-1,1.7-1.4s1.6-0.5,2.6-0.5c1.7,0,2.9,0.4,3.8,1.1c0.8,0.7,1.3,1.7,1.3,2.9l-2.7,0.1
		c-0.1-0.7-0.4-1.2-0.7-1.5c-0.4-0.3-1-0.5-1.7-0.5c-0.8,0-1.4,0.2-1.8,0.5c-0.3,0.2-0.4,0.5-0.4,0.8c0,0.3,0.1,0.6,0.4,0.8
		c0.3,0.3,1.2,0.6,2.5,0.9c1.3,0.3,2.3,0.6,2.9,1c0.6,0.3,1.1,0.8,1.5,1.4c0.4,0.6,0.5,1.3,0.5,2.1c0,0.8-0.2,1.5-0.6,2.2
		c-0.4,0.7-1,1.2-1.8,1.5s-1.7,0.5-2.9,0.5c-1.7,0-3-0.4-3.9-1.2C93.2,66.8,92.7,65.6,92.5,64.1z"/>
	<path class="st1" d="M104.6,68.5v-2l3.6-4.2c0.6-0.7,1-1.2,1.3-1.5c-0.3,0-0.7,0-1.2,0l-3.4,0v-2.1h8v1.8l-3.7,4.3l-1.3,1.4
		c0.7,0,1.2-0.1,1.3-0.1h4v2.3H104.6z"/>
	<path class="st1" d="M120.6,65.4l2.6,0.4c-0.3,0.9-0.8,1.6-1.6,2.1c-0.7,0.5-1.6,0.7-2.7,0.7c-1.7,0-2.9-0.5-3.7-1.7
		c-0.6-0.9-1-2-1-3.3c0-1.6,0.4-2.9,1.3-3.8c0.8-0.9,1.9-1.4,3.2-1.4c1.4,0,2.6,0.5,3.4,1.4c0.8,1,1.2,2.4,1.2,4.4h-6.4
		c0,0.8,0.2,1.4,0.6,1.8c0.4,0.4,0.9,0.6,1.5,0.6c0.4,0,0.7-0.1,1-0.3C120.3,66.2,120.5,65.9,120.6,65.4z M120.7,62.8
		c0-0.7-0.2-1.3-0.6-1.7c-0.4-0.4-0.8-0.6-1.3-0.6c-0.6,0-1,0.2-1.4,0.6c-0.4,0.4-0.5,1-0.5,1.7H120.7z"/>
	<path class="st1" d="M134.2,68.5h-2.6v-4.9c0-1-0.1-1.7-0.2-2c-0.1-0.3-0.3-0.5-0.5-0.7c-0.2-0.2-0.5-0.3-0.9-0.3
		c-0.4,0-0.8,0.1-1.2,0.4c-0.4,0.2-0.6,0.6-0.7,1c-0.1,0.4-0.2,1.1-0.2,2.2v4.4h-2.6v-9.7h2.4v1.4c0.8-1.1,1.9-1.6,3.2-1.6
		c0.6,0,1.1,0.1,1.6,0.3c0.5,0.2,0.8,0.5,1.1,0.8s0.4,0.7,0.5,1.1s0.1,1,0.1,1.7V68.5z"/>
	<path class="st1" d="M141.2,58.8v2h-1.8v3.9c0,0.8,0,1.3,0.1,1.4c0,0.1,0.1,0.2,0.2,0.3c0.1,0.1,0.3,0.1,0.4,0.1
		c0.2,0,0.6-0.1,1-0.2l0.2,2c-0.6,0.3-1.3,0.4-2,0.4c-0.5,0-0.9-0.1-1.2-0.2c-0.4-0.2-0.6-0.4-0.8-0.6c-0.2-0.2-0.3-0.6-0.4-1
		c-0.1-0.3-0.1-0.9-0.1-1.8v-4.2h-1.2v-2h1.2v-1.9l2.6-1.5v3.4H141.2z"/>
	<path class="st1" d="M148.1,68.5V55.1h2.7v13.4H148.1z"/>
	<path class="st1" d="M152.5,65.7l2.6-0.4c0.1,0.5,0.3,0.9,0.7,1.1c0.3,0.3,0.8,0.4,1.4,0.4c0.7,0,1.2-0.1,1.5-0.4
		c0.2-0.2,0.3-0.4,0.3-0.7c0-0.2-0.1-0.4-0.2-0.5c-0.1-0.1-0.4-0.2-0.9-0.3c-2.1-0.5-3.4-0.9-3.9-1.2c-0.8-0.5-1.1-1.2-1.1-2.2
		c0-0.8,0.3-1.5,1-2.1c0.7-0.6,1.7-0.9,3.1-0.9c1.3,0,2.3,0.2,3,0.6s1.1,1.1,1.3,1.9l-2.4,0.4c-0.1-0.4-0.3-0.7-0.6-0.9
		c-0.3-0.2-0.7-0.3-1.2-0.3c-0.7,0-1.2,0.1-1.5,0.3c-0.2,0.1-0.3,0.3-0.3,0.5c0,0.2,0.1,0.3,0.3,0.5c0.2,0.2,1,0.4,2.4,0.7
		c1.4,0.3,2.3,0.7,2.9,1.1c0.5,0.5,0.8,1.1,0.8,1.9c0,0.9-0.4,1.7-1.1,2.3c-0.7,0.6-1.8,1-3.3,1c-1.3,0-2.4-0.3-3.1-0.8
		C153.2,67.4,152.7,66.6,152.5,65.7z"/>
	<path class="st1" d="M168.2,58.8v2h-1.8v3.9c0,0.8,0,1.3,0.1,1.4c0,0.1,0.1,0.2,0.2,0.3c0.1,0.1,0.3,0.1,0.4,0.1
		c0.2,0,0.6-0.1,1-0.2l0.2,2c-0.6,0.3-1.3,0.4-2,0.4c-0.5,0-0.9-0.1-1.2-0.2c-0.4-0.2-0.6-0.4-0.8-0.6c-0.2-0.2-0.3-0.6-0.4-1
		c-0.1-0.3-0.1-0.9-0.1-1.8v-4.2h-1.2v-2h1.2v-1.9l2.6-1.5v3.4H168.2z"/>
	<path class="st1" d="M172.7,68.5l-3.9-9.7h2.7l1.8,4.9l0.5,1.7c0.1-0.4,0.2-0.7,0.3-0.8c0.1-0.3,0.2-0.5,0.3-0.8l1.8-4.9h2.6
		l-3.8,9.7H172.7z"/>
	<path class="st1" d="M182.3,61.8l-2.3-0.4c0.3-0.9,0.7-1.6,1.4-2.1s1.6-0.7,2.8-0.7c1.1,0,2,0.1,2.6,0.4s1,0.6,1.2,1
		c0.2,0.4,0.3,1.2,0.3,2.3l0,3c0,0.9,0,1.5,0.1,1.9s0.2,0.8,0.5,1.3h-2.5c-0.1-0.2-0.1-0.4-0.2-0.8c0-0.2-0.1-0.3-0.1-0.3
		c-0.4,0.4-0.9,0.7-1.4,1s-1,0.3-1.6,0.3c-1,0-1.8-0.3-2.4-0.8s-0.9-1.2-0.9-2.1c0-0.5,0.1-1,0.4-1.5c0.3-0.4,0.6-0.8,1.1-1
		c0.5-0.2,1.2-0.4,2-0.6c1.2-0.2,2-0.4,2.5-0.6v-0.3c0-0.5-0.1-0.8-0.4-1.1c-0.2-0.2-0.7-0.3-1.4-0.3c-0.5,0-0.8,0.1-1.1,0.3
		C182.7,61,182.5,61.3,182.3,61.8z M185.7,63.8c-0.3,0.1-0.8,0.2-1.6,0.4c-0.7,0.2-1.2,0.3-1.4,0.4c-0.3,0.2-0.5,0.5-0.5,0.9
		c0,0.4,0.1,0.7,0.4,0.9c0.3,0.3,0.6,0.4,1,0.4c0.5,0,0.9-0.2,1.3-0.5c0.3-0.2,0.5-0.5,0.6-0.8c0.1-0.2,0.1-0.6,0.1-1.2V63.8z
		 M183,57.6l1.3-2.7h2.9l-2.5,2.7H183z"/>
	<path class="st1" d="M199.6,68.5H197v-4.9c0-1-0.1-1.7-0.2-2c-0.1-0.3-0.3-0.5-0.5-0.7c-0.2-0.2-0.5-0.3-0.9-0.3
		c-0.4,0-0.8,0.1-1.2,0.4c-0.4,0.2-0.6,0.6-0.7,1c-0.1,0.4-0.2,1.1-0.2,2.2v4.4h-2.6v-9.7h2.4v1.4c0.8-1.1,1.9-1.6,3.2-1.6
		c0.6,0,1.1,0.1,1.6,0.3c0.5,0.2,0.8,0.5,1.1,0.8s0.4,0.7,0.5,1.1s0.1,1,0.1,1.7V68.5z"/>
	<path class="st1" d="M207.4,55.1h5.3c1.1,0,1.8,0,2.4,0.1c0.5,0.1,1,0.3,1.4,0.6c0.4,0.3,0.8,0.7,1,1.1s0.4,1,0.4,1.6
		c0,0.6-0.2,1.2-0.5,1.7c-0.3,0.5-0.8,0.9-1.4,1.2c0.8,0.2,1.4,0.6,1.9,1.2c0.4,0.6,0.7,1.2,0.7,2c0,0.6-0.1,1.2-0.4,1.8
		c-0.3,0.6-0.7,1-1.2,1.4c-0.5,0.3-1.1,0.6-1.8,0.6c-0.5,0-1.5,0.1-3.3,0.1h-4.6V55.1z M210.1,57.3v3.1h1.8c1.1,0,1.7,0,2,0
		c0.5-0.1,0.8-0.2,1.1-0.5c0.3-0.3,0.4-0.6,0.4-1c0-0.4-0.1-0.7-0.3-1s-0.6-0.4-1-0.5c-0.3,0-1,0-2.3,0H210.1z M210.1,62.7v3.6h2.5
		c1,0,1.6,0,1.9-0.1c0.4-0.1,0.7-0.3,1-0.5c0.3-0.3,0.4-0.7,0.4-1.1c0-0.4-0.1-0.7-0.3-1c-0.2-0.3-0.5-0.5-0.8-0.6
		c-0.4-0.1-1.2-0.2-2.4-0.2H210.1z"/>
	<path class="st1" d="M222.8,61.8l-2.3-0.4c0.3-0.9,0.7-1.6,1.4-2.1s1.6-0.7,2.8-0.7c1.1,0,2,0.1,2.6,0.4s1,0.6,1.2,1
		c0.2,0.4,0.3,1.2,0.3,2.3l0,3c0,0.9,0,1.5,0.1,1.9s0.2,0.8,0.5,1.3h-2.5c-0.1-0.2-0.1-0.4-0.2-0.8c0-0.2-0.1-0.3-0.1-0.3
		c-0.4,0.4-0.9,0.7-1.4,1s-1,0.3-1.6,0.3c-1,0-1.8-0.3-2.4-0.8s-0.9-1.2-0.9-2.1c0-0.5,0.1-1,0.4-1.5c0.3-0.4,0.6-0.8,1.1-1
		c0.5-0.2,1.2-0.4,2-0.6c1.2-0.2,2-0.4,2.5-0.6v-0.3c0-0.5-0.1-0.8-0.4-1.1c-0.2-0.2-0.7-0.3-1.4-0.3c-0.5,0-0.8,0.1-1.1,0.3
		C223.2,61,222.9,61.3,222.8,61.8z M226.2,63.8c-0.3,0.1-0.8,0.2-1.6,0.4c-0.7,0.2-1.2,0.3-1.4,0.4c-0.3,0.2-0.5,0.5-0.5,0.9
		c0,0.4,0.1,0.7,0.4,0.9c0.3,0.3,0.6,0.4,1,0.4c0.5,0,0.9-0.2,1.3-0.5c0.3-0.2,0.5-0.5,0.6-0.8c0.1-0.2,0.1-0.6,0.1-1.2V63.8z"/>
	<path class="st1" d="M230.2,68.5v-2l3.6-4.2c0.6-0.7,1-1.2,1.3-1.5c-0.3,0-0.7,0-1.2,0l-3.4,0v-2.1h8v1.8l-3.7,4.3l-1.3,1.4
		c0.7,0,1.2-0.1,1.3-0.1h4v2.3H230.2z"/>
	<path class="st1" d="M240.6,57.5v-2.4h2.6v2.4H240.6z M240.6,68.5v-9.7h2.6v9.7H240.6z"/>
	<path class="st1" d="M245.8,68.5V55.1h2.6v13.4H245.8z"/>
	<path class="st1" d="M251,57.5v-2.4h2.6v2.4H251z M251,68.5v-9.7h2.6v9.7H251z"/>
	<path class="st1" d="M256.1,68.5V55.1h2.6v7.1l3-3.4h3.2l-3.3,3.5l3.5,6.1h-2.8l-2.4-4.4l-1.2,1.2v3.1H256.1z"/>
	<path class="st1" d="M268.5,61.8l-2.3-0.4c0.3-0.9,0.7-1.6,1.4-2.1s1.6-0.7,2.8-0.7c1.1,0,2,0.1,2.6,0.4s1,0.6,1.2,1
		c0.2,0.4,0.3,1.2,0.3,2.3l0,3c0,0.9,0,1.5,0.1,1.9s0.2,0.8,0.5,1.3h-2.5c-0.1-0.2-0.1-0.4-0.2-0.8c0-0.2-0.1-0.3-0.1-0.3
		c-0.4,0.4-0.9,0.7-1.4,1s-1,0.3-1.6,0.3c-1,0-1.8-0.3-2.4-0.8s-0.9-1.2-0.9-2.1c0-0.5,0.1-1,0.4-1.5c0.3-0.4,0.6-0.8,1.1-1
		c0.5-0.2,1.2-0.4,2-0.6c1.2-0.2,2-0.4,2.5-0.6v-0.3c0-0.5-0.1-0.8-0.4-1.1c-0.2-0.2-0.7-0.3-1.4-0.3c-0.5,0-0.8,0.1-1.1,0.3
		C268.8,61,268.6,61.3,268.5,61.8z M271.9,63.8c-0.3,0.1-0.8,0.2-1.6,0.4c-0.7,0.2-1.2,0.3-1.4,0.4c-0.3,0.2-0.5,0.5-0.5,0.9
		c0,0.4,0.1,0.7,0.4,0.9c0.3,0.3,0.6,0.4,1,0.4c0.5,0,0.9-0.2,1.3-0.5c0.3-0.2,0.5-0.5,0.6-0.8c0.1-0.2,0.1-0.6,0.1-1.2V63.8z
		 M269.1,57.6l1.3-2.7h2.9l-2.5,2.7H269.1z"/>
	<path class="st1" d="M276.8,68.5V55.1h2.6v4.8c0.8-0.9,1.7-1.4,2.8-1.4c1.2,0,2.2,0.4,2.9,1.3s1.2,2.1,1.2,3.7
		c0,1.7-0.4,2.9-1.2,3.8s-1.7,1.3-2.9,1.3c-0.6,0-1.1-0.1-1.6-0.4s-1-0.7-1.4-1.2v1.4H276.8z M279.4,63.4c0,1,0.2,1.7,0.5,2.2
		c0.4,0.7,1,1,1.8,1c0.6,0,1-0.2,1.4-0.7c0.4-0.5,0.6-1.2,0.6-2.3c0-1.1-0.2-1.9-0.6-2.4c-0.4-0.5-0.9-0.7-1.5-0.7
		c-0.6,0-1.1,0.2-1.5,0.7C279.6,61.7,279.4,62.5,279.4,63.4z"/>
	<path class="st1" d="M290.3,61.8l-2.3-0.4c0.3-0.9,0.7-1.6,1.4-2.1s1.6-0.7,2.8-0.7c1.1,0,2,0.1,2.6,0.4s1,0.6,1.2,1
		c0.2,0.4,0.3,1.2,0.3,2.3l0,3c0,0.9,0,1.5,0.1,1.9s0.2,0.8,0.5,1.3h-2.5c-0.1-0.2-0.1-0.4-0.2-0.8c0-0.2-0.1-0.3-0.1-0.3
		c-0.4,0.4-0.9,0.7-1.4,1s-1,0.3-1.6,0.3c-1,0-1.8-0.3-2.4-0.8s-0.9-1.2-0.9-2.1c0-0.5,0.1-1,0.4-1.5c0.3-0.4,0.6-0.8,1.1-1
		c0.5-0.2,1.2-0.4,2-0.6c1.2-0.2,2-0.4,2.5-0.6v-0.3c0-0.5-0.1-0.8-0.4-1.1c-0.2-0.2-0.7-0.3-1.4-0.3c-0.5,0-0.8,0.1-1.1,0.3
		C290.6,61,290.4,61.3,290.3,61.8z M293.7,63.8c-0.3,0.1-0.8,0.2-1.6,0.4c-0.7,0.2-1.2,0.3-1.4,0.4c-0.3,0.2-0.5,0.5-0.5,0.9
		c0,0.4,0.1,0.7,0.4,0.9c0.3,0.3,0.6,0.4,1,0.4c0.5,0,0.9-0.2,1.3-0.5c0.3-0.2,0.5-0.5,0.6-0.8c0.1-0.2,0.1-0.6,0.1-1.2V63.8z"/>
	<path class="st1" d="M307.6,68.5H305v-4.9c0-1-0.1-1.7-0.2-2c-0.1-0.3-0.3-0.5-0.5-0.7c-0.2-0.2-0.5-0.3-0.9-0.3
		c-0.4,0-0.8,0.1-1.2,0.4s-0.6,0.6-0.7,1c-0.1,0.4-0.2,1.1-0.2,2.2v4.4h-2.6v-9.7h2.4v1.4c0.8-1.1,1.9-1.6,3.2-1.6
		c0.6,0,1.1,0.1,1.6,0.3c0.5,0.2,0.8,0.5,1.1,0.8s0.4,0.7,0.5,1.1c0.1,0.4,0.1,1,0.1,1.7V68.5z"/>
</g>
</svg>
