<?xml version="1.0" encoding="utf-8"?>
<!-- Generator: Adobe Illustrator 22.1.0, SVG Export Plug-In . SVG Version: 6.00 Build 0)  -->
<svg version="1.1" id="Layer_1" xmlns="http://www.w3.org/2000/svg" xmlns:xlink="http://www.w3.org/1999/xlink" x="0px" y="0px"
	 viewBox="0 0 271.9 67.3" style="enable-background:new 0 0 271.9 67.3;" xml:space="preserve">
<style type="text/css">
	.st0{fill:#FFFFFF;}
	.st1{fill:#FF0000;}
</style>
<g>
	<path class="st0" d="M78.5,22.2L70.6,5v13.6c0,1.3,0.1,2,0.4,2.4c0.4,0.4,1,0.6,1.8,0.6h0.7v0.5h-7.1v-0.5h0.7
		c0.9,0,1.5-0.3,1.8-0.8c0.2-0.3,0.3-1.1,0.3-2.2V5.3c0-0.9-0.1-1.6-0.3-2c-0.1-0.3-0.4-0.5-0.8-0.7c-0.4-0.2-1-0.3-1.8-0.3V1.8h5.9
		l7.4,15.9l7.3-15.9h5.7v0.5h-0.7c-0.9,0-1.5,0.3-1.9,0.8c-0.2,0.3-0.3,1.1-0.3,2.2v13.3c0,1.3,0.1,2,0.4,2.4c0.4,0.4,1,0.6,1.8,0.6
		h0.7v0.5H84v-0.5h0.7c0.9,0,1.5-0.3,1.8-0.8c0.2-0.3,0.3-1.1,0.3-2.2V5L79,22.2H78.5z"/>
	<path class="st0" d="M101.4,20.2c-1.4,1.1-2.3,1.7-2.7,1.9c-0.5,0.3-1.1,0.4-1.7,0.4c-1,0-1.7-0.3-2.3-1c-0.6-0.7-0.9-1.5-0.9-2.6
		c0-0.7,0.1-1.3,0.4-1.7c0.4-0.7,1.1-1.3,2.1-1.9c1-0.6,2.7-1.3,5.1-2.2v-0.5c0-1.4-0.2-2.3-0.6-2.8c-0.4-0.5-1.1-0.8-1.9-0.8
		c-0.6,0-1.1,0.2-1.5,0.5c-0.4,0.3-0.6,0.7-0.6,1.2l0,0.9c0,0.5-0.1,0.8-0.4,1.1c-0.2,0.2-0.5,0.4-0.9,0.4c-0.4,0-0.7-0.1-0.9-0.4
		c-0.2-0.3-0.4-0.6-0.4-1.1c0-0.9,0.4-1.7,1.3-2.4C96.5,8.4,97.7,8,99.3,8c1.2,0,2.2,0.2,3,0.6c0.6,0.3,1,0.8,1.3,1.5
		c0.2,0.4,0.3,1.3,0.3,2.6v4.7c0,1.3,0,2.1,0.1,2.4c0.1,0.3,0.1,0.5,0.3,0.6c0.1,0.1,0.2,0.1,0.4,0.1c0.2,0,0.3,0,0.4-0.1
		c0.2-0.1,0.6-0.5,1.2-1.1v0.8c-1.1,1.5-2.2,2.2-3.2,2.2c-0.5,0-0.9-0.2-1.2-0.5C101.6,21.6,101.4,21,101.4,20.2 M101.4,19.2V14
		c-1.5,0.6-2.5,1-2.9,1.3c-0.8,0.4-1.4,0.9-1.7,1.4c-0.3,0.5-0.5,1-0.5,1.6c0,0.7,0.2,1.3,0.6,1.8c0.4,0.5,0.9,0.7,1.5,0.7
		C99.2,20.7,100.2,20.2,101.4,19.2"/>
	<path class="st0" d="M110.4,17.1c-0.8-0.4-1.5-1-1.9-1.7c-0.5-0.7-0.7-1.5-0.7-2.4c0-1.4,0.5-2.5,1.5-3.5c1-1,2.3-1.5,3.9-1.5
		c1.3,0,2.4,0.3,3.4,1h2.9c0.4,0,0.7,0,0.7,0c0.1,0,0.1,0.1,0.2,0.1c0.1,0.1,0.1,0.2,0.1,0.5c0,0.3,0,0.4-0.1,0.5
		c0,0.1-0.1,0.1-0.2,0.1c-0.1,0-0.3,0-0.8,0h-1.8c0.6,0.7,0.8,1.6,0.8,2.8c0,1.3-0.5,2.4-1.5,3.3c-1,0.9-2.3,1.4-3.9,1.4
		c-0.7,0-1.4-0.1-2.1-0.3c-0.4,0.4-0.7,0.7-0.9,1c-0.2,0.3-0.2,0.5-0.2,0.7c0,0.2,0.1,0.3,0.2,0.5c0.2,0.2,0.5,0.3,1,0.3
		c0.3,0,1,0.1,2.1,0.1c2.1,0.1,3.4,0.1,4,0.2c0.9,0.1,1.7,0.5,2.2,1c0.6,0.6,0.8,1.2,0.8,2.1c0,1.1-0.5,2.2-1.6,3.2
		c-1.6,1.5-3.6,2.2-6.1,2.2c-1.9,0-3.6-0.4-4.9-1.3c-0.7-0.5-1.1-1-1.1-1.6c0-0.2,0.1-0.5,0.2-0.7c0.2-0.4,0.5-0.9,1.1-1.5
		c0.1-0.1,0.6-0.6,1.5-1.6c-0.5-0.3-0.9-0.6-1.1-0.8c-0.2-0.2-0.3-0.5-0.3-0.8c0-0.4,0.1-0.8,0.4-1.2
		C108.7,18.6,109.3,18,110.4,17.1 M110.2,22.2c-0.5,0.5-0.8,1-1.1,1.4c-0.2,0.4-0.4,0.8-0.4,1.2c0,0.5,0.3,0.9,0.9,1.3
		c1,0.6,2.4,0.9,4.3,0.9c1.8,0,3.1-0.3,4-1c0.9-0.6,1.3-1.3,1.3-2c0-0.5-0.3-0.9-0.8-1.1c-0.5-0.2-1.5-0.4-3.1-0.4
		C113.2,22.4,111.4,22.3,110.2,22.2 M113,8.8c-0.7,0-1.3,0.3-1.8,0.9c-0.5,0.6-0.7,1.5-0.7,2.7c0,1.6,0.3,2.8,1,3.6
		c0.5,0.7,1.2,1,2,1c0.8,0,1.4-0.3,1.9-0.8c0.5-0.6,0.7-1.5,0.7-2.7c0-1.6-0.3-2.8-1-3.7C114.4,9.1,113.8,8.8,113,8.8"/>
	<path class="st0" d="M121.2,8.4h6.4v0.5h-0.3c-0.5,0-0.8,0.1-1,0.3c-0.2,0.2-0.3,0.4-0.3,0.7c0,0.4,0.2,0.9,0.5,1.6l3.4,7l3.1-7.6
		c0.2-0.4,0.3-0.8,0.3-1.2c0-0.2,0-0.3-0.1-0.4c-0.1-0.1-0.2-0.2-0.4-0.3c-0.2-0.1-0.5-0.1-0.9-0.1V8.4h4.5v0.5
		c-0.4,0-0.6,0.1-0.8,0.2c-0.2,0.1-0.4,0.3-0.7,0.7c-0.1,0.1-0.3,0.5-0.5,1.2l-5.6,13.8c-0.5,1.3-1.3,2.3-2.1,3
		c-0.9,0.7-1.7,1-2.5,1c-0.6,0-1.1-0.2-1.5-0.5c-0.4-0.3-0.6-0.7-0.6-1.2c0-0.4,0.1-0.8,0.4-1c0.3-0.3,0.7-0.4,1.1-0.4
		c0.3,0,0.8,0.1,1.4,0.3c0.4,0.1,0.6,0.2,0.7,0.2c0.3,0,0.6-0.2,1-0.5c0.4-0.3,0.7-0.9,1.1-1.8l1-2.4l-5-10.4
		c-0.2-0.3-0.4-0.7-0.7-1.2c-0.3-0.4-0.5-0.6-0.6-0.7c-0.2-0.2-0.6-0.3-1.1-0.4V8.4z"/>
	<path class="st0" d="M144,20.2c-1.4,1.1-2.3,1.7-2.7,1.9c-0.5,0.3-1.1,0.4-1.7,0.4c-1,0-1.7-0.3-2.4-1c-0.6-0.7-0.9-1.5-0.9-2.6
		c0-0.7,0.2-1.3,0.5-1.7c0.4-0.7,1.1-1.3,2.1-1.9c1-0.6,2.7-1.3,5.1-2.2v-0.5c0-1.4-0.2-2.3-0.7-2.8c-0.4-0.5-1.1-0.8-1.9-0.8
		c-0.6,0-1.1,0.2-1.5,0.5c-0.4,0.3-0.6,0.7-0.6,1.2l0,0.9c0,0.5-0.1,0.8-0.4,1.1c-0.2,0.2-0.5,0.4-0.9,0.4c-0.4,0-0.7-0.1-0.9-0.4
		c-0.2-0.3-0.4-0.6-0.4-1.1c0-0.9,0.4-1.7,1.3-2.4c0.9-0.7,2.1-1.1,3.7-1.1c1.2,0,2.2,0.2,3,0.6c0.6,0.3,1,0.8,1.3,1.5
		c0.2,0.4,0.3,1.3,0.3,2.6v4.7c0,1.3,0,2.1,0.1,2.4c0,0.3,0.1,0.5,0.2,0.6c0.1,0.1,0.3,0.1,0.4,0.1c0.2,0,0.3,0,0.4-0.1
		c0.2-0.1,0.6-0.5,1.2-1.1v0.8c-1.1,1.5-2.2,2.2-3.2,2.2c-0.5,0-0.9-0.2-1.2-0.5C144.1,21.6,144,21,144,20.2 M144,19.2V14
		c-1.5,0.6-2.5,1-3,1.3c-0.8,0.4-1.4,0.9-1.7,1.4c-0.3,0.5-0.5,1-0.5,1.6c0,0.7,0.2,1.3,0.6,1.8c0.4,0.5,0.9,0.7,1.5,0.7
		C141.7,20.7,142.7,20.2,144,19.2"/>
	<path class="st0" d="M153.9,8v3.1C155,9,156.2,8,157.4,8c0.5,0,1,0.2,1.4,0.5c0.4,0.3,0.5,0.7,0.5,1.2c0,0.4-0.1,0.7-0.4,1
		c-0.3,0.3-0.6,0.4-0.9,0.4c-0.4,0-0.7-0.2-1.2-0.5c-0.4-0.3-0.8-0.5-1-0.5c-0.2,0-0.4,0.1-0.6,0.3c-0.5,0.4-0.9,1.1-1.4,2v6.6
		c0,0.8,0.1,1.3,0.3,1.7c0.1,0.3,0.4,0.5,0.7,0.7c0.3,0.2,0.8,0.3,1.4,0.3v0.5h-7.1v-0.5c0.7,0,1.2-0.1,1.6-0.3
		c0.2-0.2,0.4-0.4,0.5-0.8c0-0.2,0.1-0.7,0.1-1.5v-5.3c0-1.6,0-2.6-0.1-2.9c-0.1-0.3-0.2-0.5-0.4-0.7c-0.2-0.1-0.4-0.2-0.6-0.2
		c-0.3,0-0.7,0.1-1,0.2l-0.1-0.5l4.2-1.7H153.9z"/>
	<path class="st0" d="M178.8,22.2L170.9,5v13.6c0,1.3,0.1,2,0.4,2.4c0.4,0.4,1,0.6,1.8,0.6h0.7v0.5h-7.1v-0.5h0.7
		c0.9,0,1.5-0.3,1.8-0.8c0.2-0.3,0.3-1.1,0.3-2.2V5.3c0-0.9-0.1-1.6-0.3-2c-0.1-0.3-0.4-0.5-0.8-0.7c-0.4-0.2-1-0.3-1.8-0.3V1.8h5.9
		l7.4,15.9l7.3-15.9h5.7v0.5h-0.7c-0.9,0-1.5,0.3-1.9,0.8c-0.2,0.3-0.3,1.1-0.3,2.2v13.3c0,1.3,0.1,2,0.4,2.4c0.4,0.4,1,0.6,1.8,0.6
		h0.7v0.5h-8.7v-0.5h0.7c0.9,0,1.5-0.3,1.8-0.8c0.2-0.3,0.3-1.1,0.3-2.2V5l-7.9,17.2H178.8z"/>
	<path class="st0" d="M201.7,20.2c-1.4,1.1-2.3,1.7-2.7,1.9c-0.5,0.3-1.1,0.4-1.7,0.4c-1,0-1.7-0.3-2.4-1c-0.6-0.7-0.9-1.5-0.9-2.6
		c0-0.7,0.1-1.2,0.5-1.7c0.4-0.7,1.1-1.3,2.1-1.9c1-0.6,2.7-1.3,5.1-2.2v-0.5c0-1.4-0.2-2.3-0.7-2.8c-0.4-0.5-1.1-0.8-1.9-0.8
		c-0.6,0-1.1,0.2-1.5,0.5c-0.4,0.3-0.6,0.7-0.6,1.2l0,0.9c0,0.5-0.1,0.8-0.4,1.1c-0.2,0.2-0.5,0.4-0.9,0.4c-0.4,0-0.7-0.1-0.9-0.4
		c-0.2-0.3-0.4-0.6-0.4-1.1c0-0.9,0.4-1.7,1.3-2.4c0.9-0.7,2.1-1.1,3.7-1.1c1.2,0,2.2,0.2,3,0.6c0.6,0.3,1,0.8,1.3,1.5
		c0.2,0.4,0.3,1.3,0.3,2.6v4.7c0,1.3,0,2.1,0.1,2.4c0.1,0.3,0.1,0.5,0.3,0.6c0.1,0.1,0.2,0.1,0.4,0.1c0.2,0,0.3,0,0.4-0.1
		c0.2-0.1,0.6-0.5,1.2-1.1v0.8c-1.1,1.5-2.2,2.2-3.2,2.2c-0.5,0-0.9-0.2-1.2-0.5C201.8,21.6,201.7,21,201.7,20.2 M201.7,19.2V14
		c-1.5,0.6-2.5,1-3,1.3c-0.8,0.4-1.4,0.9-1.7,1.4c-0.3,0.5-0.5,1-0.5,1.6c0,0.7,0.2,1.3,0.6,1.8c0.4,0.5,0.9,0.7,1.5,0.7
		C199.4,20.7,200.4,20.2,201.7,19.2 M203.2,1.3l-4.4,5.2h-0.5l1.6-5.2H203.2z"/>
	<path class="st0" d="M211.7,0.8v18.3c0,0.9,0.1,1.4,0.2,1.7c0.1,0.3,0.3,0.5,0.6,0.6c0.3,0.1,0.7,0.2,1.5,0.2v0.5h-6.8v-0.5
		c0.6,0,1.1-0.1,1.3-0.2c0.2-0.1,0.4-0.3,0.5-0.6c0.1-0.3,0.2-0.9,0.2-1.7V6.6c0-1.6,0-2.5-0.1-2.9c-0.1-0.4-0.2-0.6-0.3-0.7
		c-0.2-0.1-0.4-0.2-0.6-0.2c-0.3,0-0.6,0.1-1,0.2l-0.3-0.5l4.1-1.7H211.7z"/>
	<path class="st0" d="M218.9,3.8v4.5h3.2v1l-3.2,0v8.9c0,0.9,0.1,1.5,0.4,1.8c0.3,0.3,0.6,0.5,1,0.5c0.3,0,0.6-0.1,1-0.3
		c0.3-0.2,0.5-0.5,0.7-0.9h0.6c-0.4,1-0.8,1.7-1.5,2.2c-0.6,0.5-1.3,0.7-2,0.7c-0.5,0-0.9-0.1-1.4-0.4c-0.4-0.3-0.8-0.6-1-1.1
		c-0.2-0.5-0.3-1.2-0.3-2.2V9.4h-2.2V8.9c0.5-0.2,1.1-0.6,1.7-1.1c0.6-0.5,1.1-1.1,1.5-1.9c0.2-0.4,0.5-1.1,1-2.1H218.9z"/>
	<path class="st0" d="M231.2,20.2c-1.4,1.1-2.3,1.7-2.7,1.9c-0.5,0.3-1.1,0.4-1.7,0.4c-0.9,0-1.7-0.3-2.3-1
		c-0.6-0.7-0.9-1.5-0.9-2.6c0-0.7,0.2-1.3,0.5-1.7c0.4-0.7,1.1-1.3,2.1-1.9c1-0.6,2.7-1.3,5.1-2.2v-0.5c0-1.4-0.2-2.3-0.7-2.8
		c-0.4-0.5-1.1-0.8-1.9-0.8c-0.6,0-1.1,0.2-1.5,0.5c-0.4,0.3-0.6,0.7-0.6,1.2l0,0.9c0,0.5-0.1,0.8-0.4,1.1c-0.2,0.2-0.5,0.4-0.9,0.4
		c-0.4,0-0.7-0.1-0.9-0.4c-0.2-0.3-0.4-0.6-0.4-1.1c0-0.9,0.4-1.7,1.3-2.4c0.9-0.7,2.1-1.1,3.7-1.1c1.2,0,2.2,0.2,3,0.6
		c0.6,0.3,1,0.8,1.3,1.5c0.2,0.4,0.3,1.3,0.3,2.6v4.7c0,1.3,0,2.1,0.1,2.4c0,0.3,0.1,0.5,0.3,0.6c0.1,0.1,0.2,0.1,0.4,0.1
		c0.2,0,0.3,0,0.4-0.1c0.2-0.1,0.6-0.5,1.2-1.1v0.8c-1.1,1.5-2.2,2.2-3.2,2.2c-0.5,0-0.9-0.2-1.2-0.5
		C231.4,21.6,231.2,21,231.2,20.2 M231.2,19.2V14c-1.5,0.6-2.5,1-3,1.3c-0.8,0.4-1.4,0.9-1.7,1.4c-0.3,0.5-0.5,1-0.5,1.6
		c0,0.7,0.2,1.3,0.6,1.8c0.4,0.5,0.9,0.7,1.5,0.7C228.9,20.7,229.9,20.2,231.2,19.2"/>
	<path class="st0" d="M241.8,8v11.1c0,0.9,0.1,1.4,0.2,1.7c0.1,0.3,0.3,0.5,0.6,0.6c0.2,0.1,0.7,0.2,1.3,0.2v0.5h-6.7v-0.5
		c0.7,0,1.1-0.1,1.4-0.2c0.2-0.1,0.4-0.3,0.5-0.6c0.1-0.3,0.2-0.9,0.2-1.7v-5.3c0-1.5,0-2.5-0.1-2.9c-0.1-0.3-0.2-0.5-0.3-0.7
		c-0.1-0.1-0.4-0.2-0.6-0.2c-0.3,0-0.6,0.1-1,0.2L237,9.7l4.1-1.7H241.8z M240.6,0.8c0.4,0,0.8,0.1,1.1,0.4c0.3,0.3,0.5,0.7,0.5,1.1
		c0,0.4-0.2,0.8-0.5,1.1c-0.3,0.3-0.7,0.5-1.1,0.5c-0.4,0-0.8-0.1-1.1-0.5c-0.3-0.3-0.5-0.7-0.5-1.1c0-0.4,0.2-0.8,0.5-1.1
		C239.8,0.9,240.1,0.8,240.6,0.8"/>
	<path class="st0" d="M80,34v7h-0.5c-0.2-1.4-0.5-2.4-1-3.2c-0.5-0.8-1.1-1.4-2-1.9c-0.9-0.5-1.8-0.7-2.7-0.7c-1,0-1.9,0.3-2.6,1
		c-0.7,0.6-1,1.4-1,2.2c0,0.6,0.2,1.2,0.6,1.7c0.6,0.7,2.1,1.7,4.4,3c1.9,1,3.2,1.8,3.9,2.3c0.7,0.5,1.2,1.2,1.6,1.9
		c0.4,0.7,0.6,1.5,0.6,2.3c0,1.5-0.6,2.9-1.8,4c-1.2,1.1-2.7,1.7-4.6,1.7c-0.6,0-1.2,0-1.7-0.1c-0.3,0-1-0.2-1.9-0.6
		c-1-0.3-1.6-0.5-1.9-0.5c-0.3,0-0.5,0.1-0.6,0.2c-0.2,0.2-0.3,0.5-0.3,1H68v-7h0.5c0.3,1.5,0.6,2.5,1.1,3.3c0.4,0.7,1.1,1.3,2,1.8
		c0.9,0.5,1.9,0.7,3,0.7c1.3,0,2.2-0.3,3-1c0.7-0.7,1.1-1.4,1.1-2.3c0-0.5-0.1-1-0.4-1.5c-0.3-0.5-0.7-1-1.3-1.4
		c-0.4-0.3-1.5-0.9-3.2-1.9c-1.7-1-3-1.7-3.7-2.3c-0.7-0.6-1.3-1.2-1.7-1.9c-0.4-0.7-0.6-1.5-0.6-2.3c0-1.5,0.6-2.7,1.7-3.8
		c1.1-1.1,2.6-1.6,4.3-1.6c1.1,0,2.2,0.3,3.5,0.8c0.6,0.3,1,0.4,1.2,0.4c0.3,0,0.5-0.1,0.6-0.2c0.2-0.2,0.3-0.5,0.4-0.9H80z"/>
	<path class="st0" d="M95.3,50.6l-0.2,4.2H83v-0.5l9.2-12.2h-4.6c-1,0-1.6,0.1-1.9,0.2c-0.3,0.1-0.5,0.4-0.7,0.7
		c-0.3,0.5-0.4,1.1-0.5,1.9H84L84,41h11.6v0.5l-9.2,12.2h5c1,0,1.7-0.1,2.1-0.3c0.4-0.2,0.7-0.5,0.9-0.9c0.2-0.3,0.3-1,0.4-2H95.3z"
		/>
	<path class="st0" d="M99.4,46.2c0,2,0.5,3.6,1.5,4.8c1,1.2,2.2,1.7,3.5,1.7c0.9,0,1.7-0.2,2.3-0.7c0.7-0.5,1.2-1.3,1.7-2.6l0.5,0.3
		c-0.2,1.4-0.8,2.6-1.8,3.8c-1,1.1-2.3,1.7-3.8,1.7c-1.6,0-3.1-0.6-4.2-1.9c-1.2-1.3-1.8-3-1.8-5.2c0-2.3,0.6-4.2,1.8-5.5
		c1.2-1.3,2.7-2,4.5-2c1.5,0,2.8,0.5,3.8,1.5c1,1,1.5,2.4,1.5,4.1H99.4z M99.4,45.4h6.4c0-0.9-0.2-1.5-0.3-1.9
		c-0.3-0.6-0.6-1-1.1-1.3c-0.5-0.3-1-0.5-1.6-0.5c-0.8,0-1.6,0.3-2.2,1C99.9,43.3,99.5,44.2,99.4,45.4"/>
	<path class="st0" d="M114.7,40.7v3.1c1.1-2.1,2.3-3.1,3.5-3.1c0.5,0,1,0.2,1.4,0.5c0.4,0.3,0.5,0.7,0.5,1.2c0,0.4-0.1,0.7-0.4,1
		c-0.3,0.3-0.6,0.4-0.9,0.4c-0.4,0-0.7-0.2-1.2-0.5c-0.4-0.3-0.7-0.5-1-0.5c-0.2,0-0.4,0.1-0.6,0.3c-0.4,0.4-0.9,1.1-1.4,2v6.6
		c0,0.8,0.1,1.4,0.3,1.7c0.1,0.3,0.4,0.5,0.7,0.7c0.3,0.2,0.8,0.3,1.4,0.3v0.5h-7v-0.5c0.7,0,1.2-0.1,1.6-0.3
		c0.3-0.2,0.4-0.4,0.5-0.8c0.1-0.2,0.1-0.7,0.1-1.5v-5.3c0-1.6,0-2.5-0.1-2.9c-0.1-0.3-0.2-0.5-0.4-0.7c-0.2-0.1-0.4-0.2-0.7-0.2
		c-0.3,0-0.7,0.1-1,0.2l-0.1-0.5l4.2-1.7H114.7z"/>
	<path class="st0" d="M123.9,46.2c0,2,0.5,3.6,1.5,4.8c1,1.2,2.2,1.7,3.5,1.7c0.9,0,1.7-0.2,2.3-0.7c0.7-0.5,1.2-1.3,1.7-2.6
		l0.5,0.3c-0.2,1.4-0.8,2.6-1.8,3.8c-1,1.1-2.3,1.7-3.8,1.7c-1.6,0-3.1-0.6-4.2-1.9c-1.2-1.3-1.8-3-1.8-5.2c0-2.3,0.6-4.2,1.8-5.5
		c1.2-1.3,2.7-2,4.5-2c1.5,0,2.8,0.5,3.8,1.5c1,1,1.5,2.4,1.5,4.1H123.9z M123.9,45.4h6.4c0-0.9-0.2-1.5-0.3-1.9
		c-0.2-0.6-0.6-1-1.1-1.3c-0.5-0.3-1-0.5-1.6-0.5c-0.8,0-1.6,0.3-2.2,1C124.4,43.3,124,44.2,123.9,45.4"/>
	<path class="st0" d="M139.2,36.5V41h3.2v1l-3.2,0V51c0,0.9,0.1,1.5,0.4,1.8c0.3,0.3,0.6,0.5,1,0.5c0.3,0,0.7-0.1,1-0.3
		c0.3-0.2,0.6-0.5,0.7-0.9h0.6c-0.4,1-0.8,1.7-1.5,2.2c-0.6,0.5-1.3,0.7-2,0.7c-0.5,0-0.9-0.1-1.4-0.4c-0.4-0.3-0.8-0.6-1-1.1
		c-0.2-0.5-0.3-1.2-0.3-2.2v-9.3h-2.2v-0.5c0.5-0.2,1.1-0.6,1.7-1.1c0.6-0.5,1.1-1.1,1.5-1.9c0.2-0.4,0.5-1.1,1-2.1H139.2z"/>
	<path class="st0" d="M146.1,46.2c0,2,0.5,3.6,1.5,4.8c1,1.2,2.2,1.7,3.5,1.7c0.9,0,1.7-0.2,2.3-0.7c0.7-0.5,1.2-1.3,1.7-2.6
		l0.5,0.3c-0.2,1.4-0.8,2.6-1.8,3.8c-1,1.1-2.3,1.7-3.8,1.7c-1.7,0-3.1-0.6-4.2-1.9c-1.2-1.3-1.8-3-1.8-5.2c0-2.3,0.6-4.2,1.8-5.5
		c1.2-1.3,2.7-2,4.5-2c1.5,0,2.8,0.5,3.8,1.5c1,1,1.5,2.4,1.5,4.1H146.1z M146.1,45.4h6.4c-0.1-0.9-0.2-1.5-0.3-1.9
		c-0.3-0.6-0.6-1-1.1-1.3c-0.5-0.3-1-0.5-1.6-0.5c-0.8,0-1.6,0.3-2.2,1C146.6,43.3,146.2,44.2,146.1,45.4"/>
	<path class="st0" d="M161.4,36.5V41h3.2v1l-3.2,0V51c0,0.9,0.1,1.5,0.4,1.8c0.3,0.3,0.6,0.5,1,0.5c0.3,0,0.6-0.1,1-0.3
		c0.3-0.2,0.5-0.5,0.7-0.9h0.6c-0.4,1-0.8,1.7-1.5,2.2c-0.6,0.5-1.3,0.7-2,0.7c-0.5,0-0.9-0.1-1.4-0.4c-0.4-0.3-0.8-0.6-1-1.1
		c-0.2-0.5-0.3-1.2-0.3-2.2v-9.3h-2.2v-0.5c0.5-0.2,1.1-0.6,1.7-1.1c0.6-0.5,1.1-1.1,1.5-1.9c0.2-0.4,0.5-1.1,1-2.1H161.4z"/>
	<path class="st0" d="M174.8,40.7v4.7h-0.5c-0.4-1.5-0.9-2.5-1.4-3c-0.6-0.5-1.3-0.8-2.3-0.8c-0.7,0-1.3,0.2-1.7,0.5
		c-0.4,0.4-0.6,0.8-0.6,1.2c0,0.6,0.2,1,0.5,1.4c0.3,0.4,0.9,0.8,1.9,1.3l2.2,1.1c2,1,3,2.3,3,3.9c0,1.3-0.5,2.3-1.4,3
		c-0.9,0.8-2,1.1-3.2,1.1c-0.8,0-1.8-0.1-2.9-0.4c-0.3-0.1-0.6-0.1-0.8-0.1c-0.2,0-0.4,0.1-0.5,0.4h-0.5v-4.9h0.5
		c0.3,1.4,0.8,2.5,1.6,3.2c0.8,0.7,1.7,1.1,2.6,1.1c0.7,0,1.2-0.2,1.7-0.6c0.4-0.4,0.7-0.9,0.7-1.5c0-0.7-0.2-1.3-0.7-1.7
		c-0.5-0.5-1.4-1.1-2.9-1.8c-1.5-0.7-2.4-1.4-2.9-1.9c-0.5-0.6-0.7-1.3-0.7-2.2c0-1.1,0.4-2.1,1.2-2.8c0.8-0.8,1.8-1.1,3-1.1
		c0.5,0,1.2,0.1,2,0.4c0.5,0.2,0.8,0.2,1,0.2c0.2,0,0.3,0,0.4-0.1c0.1-0.1,0.2-0.2,0.3-0.5H174.8z"/>
	<path class="st0" d="M189.8,50.6l-0.2,4.2h-12.1v-0.5l9.2-12.2h-4.6c-1,0-1.6,0.1-1.9,0.2c-0.3,0.1-0.5,0.4-0.7,0.7
		c-0.3,0.5-0.4,1.1-0.5,1.9h-0.6l0.1-3.8h11.5v0.5l-9.2,12.2h5c1,0,1.7-0.1,2.1-0.3c0.4-0.2,0.7-0.5,0.9-0.9c0.2-0.3,0.3-1,0.4-2
		H189.8z"/>
	<path class="st0" d="M198.3,40.7c2.1,0,3.7,0.8,5,2.4c1.1,1.4,1.6,2.9,1.6,4.7c0,1.2-0.3,2.5-0.9,3.7c-0.6,1.3-1.4,2.2-2.4,2.9
		c-1,0.6-2.2,1-3.5,1c-2.1,0-3.7-0.8-4.9-2.5c-1-1.4-1.5-3-1.5-4.7c0-1.3,0.3-2.5,0.9-3.8c0.6-1.3,1.4-2.2,2.5-2.8
		C196.1,41,197.2,40.7,198.3,40.7 M197.9,41.6c-0.5,0-1.1,0.2-1.6,0.5c-0.5,0.3-1,0.9-1.3,1.7c-0.3,0.8-0.5,1.8-0.5,3.1
		c0,2,0.4,3.7,1.2,5.2c0.8,1.4,1.8,2.2,3.1,2.2c1,0,1.8-0.4,2.4-1.2c0.6-0.8,0.9-2.2,0.9-4.1c0-2.4-0.5-4.4-1.6-5.8
		C199.8,42.1,198.9,41.6,197.9,41.6"/>
	<path class="st0" d="M211.1,33.4v18.3c0,0.9,0.1,1.4,0.2,1.7c0.1,0.3,0.3,0.5,0.6,0.6c0.3,0.1,0.7,0.2,1.5,0.2v0.5h-6.8v-0.5
		c0.6,0,1.1-0.1,1.3-0.2c0.2-0.1,0.4-0.3,0.5-0.6c0.1-0.3,0.2-0.9,0.2-1.7V39.2c0-1.5,0-2.5-0.1-2.9c-0.1-0.4-0.2-0.6-0.3-0.7
		c-0.2-0.1-0.4-0.2-0.6-0.2c-0.3,0-0.6,0.1-1,0.2l-0.3-0.5l4.1-1.7H211.1z"/>
	<path class="st0" d="M217.9,49.8c-0.8-0.4-1.5-1-1.9-1.7c-0.5-0.7-0.7-1.5-0.7-2.4c0-1.4,0.5-2.5,1.5-3.5c1-1,2.3-1.5,3.9-1.5
		c1.3,0,2.4,0.3,3.4,1h2.9c0.4,0,0.7,0,0.7,0c0.1,0,0.1,0.1,0.1,0.1c0.1,0.1,0.1,0.3,0.1,0.5c0,0.3,0,0.4-0.1,0.5
		c0,0.1-0.1,0.1-0.2,0.1c-0.1,0-0.3,0-0.8,0h-1.8c0.6,0.7,0.8,1.6,0.8,2.8c0,1.3-0.5,2.4-1.5,3.3c-1,0.9-2.3,1.4-3.9,1.4
		c-0.7,0-1.4-0.1-2.1-0.3c-0.4,0.4-0.7,0.7-0.9,1c-0.2,0.3-0.2,0.5-0.2,0.7c0,0.2,0.1,0.3,0.3,0.5c0.2,0.2,0.5,0.3,1,0.3
		c0.3,0,1,0.1,2.1,0.1c2.1,0.1,3.4,0.1,4,0.2c0.9,0.1,1.7,0.5,2.2,1c0.6,0.6,0.8,1.3,0.8,2.1c0,1.1-0.5,2.2-1.6,3.2
		c-1.6,1.5-3.6,2.2-6.1,2.2c-1.9,0-3.6-0.4-4.9-1.3c-0.7-0.5-1.1-1-1.1-1.6c0-0.2,0.1-0.5,0.2-0.7c0.2-0.4,0.5-0.9,1.1-1.5
		c0.1-0.1,0.6-0.6,1.5-1.6c-0.5-0.3-0.9-0.6-1.1-0.8c-0.2-0.2-0.3-0.5-0.3-0.8c0-0.4,0.1-0.8,0.4-1.2
		C216.3,51.3,216.9,50.6,217.9,49.8 M217.8,54.8c-0.5,0.5-0.8,1-1.1,1.4c-0.2,0.4-0.4,0.8-0.4,1.2c0,0.5,0.3,0.9,0.9,1.3
		c1,0.6,2.4,0.9,4.3,0.9c1.8,0,3.1-0.3,4-1c0.9-0.6,1.3-1.3,1.3-2c0-0.5-0.3-0.9-0.8-1.1c-0.5-0.2-1.6-0.4-3.1-0.4
		C220.8,55.1,219,55,217.8,54.8 M220.6,41.4c-0.7,0-1.4,0.3-1.9,0.9c-0.5,0.6-0.7,1.5-0.7,2.7c0,1.6,0.3,2.8,1,3.6
		c0.5,0.7,1.2,1,2,1c0.8,0,1.4-0.3,1.9-0.8c0.5-0.6,0.7-1.4,0.7-2.7c0-1.6-0.3-2.8-1-3.7C222,41.8,221.4,41.4,220.6,41.4"/>
	<path class="st0" d="M237.4,52.8c-1.4,1.1-2.3,1.7-2.7,1.9c-0.5,0.3-1.1,0.4-1.7,0.4c-1,0-1.7-0.3-2.4-1c-0.6-0.7-0.9-1.5-0.9-2.6
		c0-0.7,0.1-1.3,0.5-1.7c0.4-0.7,1.1-1.3,2.1-1.9c1-0.6,2.7-1.3,5.1-2.2v-0.5c0-1.4-0.2-2.3-0.7-2.8c-0.4-0.5-1.1-0.8-1.9-0.8
		c-0.6,0-1.1,0.2-1.5,0.5c-0.4,0.3-0.6,0.7-0.6,1.2l0,0.9c0,0.5-0.1,0.8-0.4,1.1c-0.2,0.3-0.5,0.4-0.9,0.4c-0.4,0-0.7-0.1-0.9-0.4
		c-0.2-0.3-0.4-0.6-0.4-1.1c0-0.9,0.4-1.6,1.3-2.4c0.9-0.7,2.1-1.1,3.7-1.1c1.2,0,2.2,0.2,3,0.6c0.6,0.3,1,0.8,1.3,1.5
		c0.2,0.4,0.3,1.3,0.3,2.6v4.7c0,1.3,0,2.1,0.1,2.4c0.1,0.3,0.1,0.5,0.3,0.6c0.1,0.1,0.2,0.2,0.4,0.2c0.2,0,0.3,0,0.4-0.1
		c0.2-0.1,0.6-0.5,1.2-1.1v0.8c-1.1,1.5-2.2,2.3-3.2,2.3c-0.5,0-0.9-0.2-1.2-0.5C237.6,54.2,237.4,53.7,237.4,52.8 M237.4,51.9v-5.2
		c-1.5,0.6-2.5,1-3,1.3c-0.8,0.4-1.4,0.9-1.7,1.4c-0.3,0.5-0.5,1-0.5,1.6c0,0.7,0.2,1.3,0.6,1.8c0.4,0.5,0.9,0.7,1.5,0.7
		C235.2,53.4,236.2,52.9,237.4,51.9 M239,34l-4.4,5.2h-0.5l1.6-5.2H239z"/>
	<path class="st0" d="M247.4,33.4v18.3c0,0.9,0.1,1.4,0.2,1.7c0.1,0.3,0.3,0.5,0.6,0.6c0.3,0.1,0.7,0.2,1.5,0.2v0.5h-6.8v-0.5
		c0.6,0,1.1-0.1,1.3-0.2c0.2-0.1,0.4-0.3,0.5-0.6c0.1-0.3,0.2-0.9,0.2-1.7V39.2c0-1.5,0-2.5-0.1-2.9c-0.1-0.4-0.2-0.6-0.3-0.7
		c-0.2-0.1-0.4-0.2-0.6-0.2c-0.3,0-0.6,0.1-1,0.2l-0.3-0.5l4.1-1.7H247.4z"/>
	<path class="st0" d="M258.4,52.8c-1.4,1.1-2.3,1.7-2.7,1.9c-0.5,0.3-1.1,0.4-1.7,0.4c-1,0-1.7-0.3-2.3-1c-0.6-0.7-0.9-1.5-0.9-2.6
		c0-0.7,0.2-1.3,0.5-1.7c0.4-0.7,1.1-1.3,2.1-1.9c1-0.6,2.7-1.3,5.1-2.2v-0.5c0-1.4-0.2-2.3-0.7-2.8c-0.4-0.5-1.1-0.8-1.9-0.8
		c-0.6,0-1.1,0.2-1.5,0.5c-0.4,0.3-0.6,0.7-0.6,1.2l0,0.9c0,0.5-0.1,0.8-0.4,1.1c-0.2,0.3-0.5,0.4-0.9,0.4c-0.4,0-0.7-0.1-0.9-0.4
		c-0.2-0.3-0.4-0.6-0.4-1.1c0-0.9,0.4-1.6,1.3-2.4c0.9-0.7,2.1-1.1,3.7-1.1c1.2,0,2.2,0.2,3,0.6c0.6,0.3,1,0.8,1.3,1.5
		c0.2,0.4,0.3,1.3,0.3,2.7v4.7c0,1.3,0,2.1,0.1,2.4c0,0.3,0.1,0.5,0.3,0.6c0.1,0.1,0.2,0.1,0.4,0.1c0.2,0,0.3,0,0.4-0.1
		c0.2-0.1,0.6-0.5,1.2-1.1v0.8c-1.1,1.5-2.2,2.3-3.2,2.3c-0.5,0-0.9-0.2-1.2-0.5C258.6,54.2,258.4,53.7,258.4,52.8 M258.4,51.9v-5.2
		c-1.5,0.6-2.5,1-3,1.3c-0.8,0.4-1.4,0.9-1.7,1.4c-0.3,0.5-0.5,1-0.5,1.6c0,0.7,0.2,1.3,0.6,1.8c0.4,0.5,0.9,0.7,1.5,0.7
		C256.1,53.4,257.1,52.9,258.4,51.9"/>
	<path class="st0" d="M268.3,36.5V41h3.2v1l-3.2,0V51c0,0.9,0.1,1.5,0.4,1.8c0.3,0.3,0.6,0.5,1,0.5c0.3,0,0.7-0.1,1-0.3
		c0.3-0.2,0.6-0.5,0.7-0.9h0.6c-0.4,1-0.8,1.7-1.5,2.2c-0.6,0.5-1.3,0.7-2,0.7c-0.5,0-0.9-0.1-1.4-0.4c-0.4-0.3-0.8-0.6-1-1.1
		c-0.2-0.5-0.3-1.2-0.3-2.2v-9.3h-2.2v-0.5c0.5-0.2,1.1-0.6,1.7-1.1c0.6-0.5,1.1-1.1,1.5-1.9c0.2-0.4,0.5-1.1,1-2.1H268.3z"/>
</g>
<path class="st0" d="M58.4,1.5c0,1,0,29.8,0,29.8C58.4,52.4,43,61.6,30,65.7C17,61.6,1.5,52.4,1.5,31.3c0,0,0-28.8,0-29.8
	C2.5,1.5,57.5,1.5,58.4,1.5z"/>
<g>
	<path class="st1" d="M59,0H0v31.3c0,17.5,10.3,29.9,29.7,35.9l0.3,0.1l0.3-0.1C49.7,61.2,60,48.8,60,31.3V0H59z M58,2
		c0,1.9,0,29.3,0,29.3C58,52,42.8,61.1,30,65.2C17.2,61.1,2,52,2,31.3C2,31.3,2,3.9,2,2C3.9,2,56,2,58,2z"/>
</g>
<g>
	<path class="st1" d="M59,0.5H0.5v30.8c0,21.8,15.9,31.3,29.3,35.4l0.2,0l0.2,0c13.4-4.1,29.3-13.6,29.3-35.4V0.5H59z M58.4,1.5
		c0,1,0,29.8,0,29.8C58.4,52.4,43,61.6,30,65.7C17,61.6,1.5,52.4,1.5,31.3c0,0,0-28.8,0-29.8C2.5,1.5,57.5,1.5,58.4,1.5z"/>
</g>
<path class="st1" d="M5.1,5.1c0,6.1,0,26.2,0,26.2c0,14.9,8.4,25.2,24.9,30.6c16.5-5.5,24.9-15.8,24.9-30.6c0,0,0-20.2,0-26.2
	C48.4,5.1,11.5,5.1,5.1,5.1z"/>
<g>
	<polygon class="st0" points="29.9,18.3 37,11.2 29.9,29.1 22.9,11.2 	"/>
	<polygon class="st0" points="41.3,29.7 48.5,36.7 30.5,29.7 48.5,22.6 	"/>
	<polygon class="st0" points="29.9,41 22.9,48.2 30,30.2 37,48.2 	"/>
	<polygon class="st0" points="18.6,29.7 11.4,22.6 29.4,29.7 11.4,36.7 	"/>
</g>
</svg>
