<?xml version="1.0" encoding="utf-8"?>
<!-- Generator: Adobe Illustrator 22.1.0, SVG Export Plug-In . SVG Version: 6.00 Build 0)  -->
<svg version="1.1" id="Réteg_1" xmlns="http://www.w3.org/2000/svg" xmlns:xlink="http://www.w3.org/1999/xlink" x="0px" y="0px"
	 viewBox="0 0 105.7 115.5" style="enable-background:new 0 0 105.7 115.5;" xml:space="preserve">
<style type="text/css">
	.st0{opacity:0.12;fill:#FFFFFF;}
</style>
<path class="st0" d="M60.7,81.3V67.2c0-1,0.8-1.7,1.7-1.7h14.2c1,0,1.7-0.8,1.7-1.7V51.5c0-1-0.8-1.7-1.7-1.7H62.4
	c-1,0-1.7-0.8-1.7-1.7V33.8c0-1-0.8-1.7-1.7-1.7H46.7c-1,0-1.7,0.8-1.7,1.7V48c0,1-0.8,1.7-1.7,1.7H29.1c-1,0-1.7,0.8-1.7,1.7v12.2
	c0,1,0.8,1.7,1.7,1.7h14.2c1,0,1.7,0.8,1.7,1.7v14.2c0,1,0.8,1.7,1.7,1.7h12.2C59.9,83.1,60.7,82.3,60.7,81.3z"/>
<path class="st0" d="M86.1,54.8h12.2c1,0,1.7-0.8,1.7-1.7V26.4V12.5c0-1-0.8-1.7-1.7-1.7H84.3H57.7c-1,0-1.7,0.8-1.7,1.7v12.2
	c0,1,0.8,1.7,1.7,1.7h24.9c1,0,1.7,0.8,1.7,1.7V53C84.3,54,85.1,54.8,86.1,54.8z"/>
<path class="st0" d="M23.1,26.4h24.9c1,0,1.7-0.8,1.7-1.7V12.5c0-1-0.8-1.7-1.7-1.7H21.3H7.4c-1,0-1.7,0.8-1.7,1.7v13.9V53
	c0,1,0.8,1.7,1.7,1.7h12.2c1,0,1.7-0.8,1.7-1.7V28.2C21.3,27.2,22.1,26.4,23.1,26.4z"/>
<path class="st0" d="M19.6,60.8H7.4c-1,0-1.7,0.8-1.7,1.7v26.6V103c0,1,0.8,1.7,1.7,1.7h13.9h26.6c1,0,1.7-0.8,1.7-1.7V90.8
	c0-1-0.8-1.7-1.7-1.7H23.1c-1,0-1.7-0.8-1.7-1.7V62.5C21.3,61.5,20.6,60.8,19.6,60.8z"/>
<path class="st0" d="M84.3,62.2V87c0,1-0.8,1.7-1.7,1.7H57.7c-1,0-1.7,0.8-1.7,1.7v12.2c0,1,0.8,1.7,1.7,1.7h26.6h13.9
	c1,0,1.7-0.8,1.7-1.7V88.8V62.2c0-1-0.8-1.7-1.7-1.7H86.1C85.1,60.4,84.3,61.2,84.3,62.2z"/>
</svg>
